<svg width="41" height="40" viewBox="0 0 41 40" fill="none" xmlns="http://www.w3.org/2000/svg">
<path d="M20.4998 11.7531C19.1058 11.7531 12.5458 12.7521 12.3203 19.3535C15.8463 18.5699 18.5933 15.8863 19.2903 12.4779C20.3768 14.7306 23.3083 17.9627 28.3718 17.5709C27.4493 14.2213 24.2923 11.7531 20.4998 11.7531Z" fill="white"/>
<path d="M15.3754 22.5268C16.2245 22.5268 16.9129 21.8691 16.9129 21.0577C16.9129 20.2463 16.2245 19.5886 15.3754 19.5886C14.5263 19.5886 13.8379 20.2463 13.8379 21.0577C13.8379 21.8691 14.5263 22.5268 15.3754 22.5268Z" fill="white"/>
<path d="M25.6254 22.5268C26.4745 22.5268 27.1629 21.8691 27.1629 21.0577C27.1629 20.2463 26.4745 19.5886 25.6254 19.5886C24.7763 19.5886 24.0879 20.2463 24.0879 21.0577C24.0879 21.8691 24.7763 22.5268 25.6254 22.5268Z" fill="white"/>
<path d="M32.8004 19.5886C32.8004 13.1048 27.2859 7.83545 20.5004 7.83545C13.7149 7.83545 8.20039 13.1048 8.20039 19.5886C7.07289 19.5886 6.15039 20.4701 6.15039 21.5474V25.4651C6.15039 26.5425 7.07289 27.424 8.20039 27.424H10.2504V19.5886C10.2504 14.1821 14.8424 9.7943 20.5004 9.7943C26.1584 9.7943 30.7504 14.1821 30.7504 19.5886V29.3828H18.4504V31.3417H30.7504C31.8779 31.3417 32.8004 30.4602 32.8004 29.3828V27.424C33.9279 27.424 34.8504 26.5425 34.8504 25.4651V21.5474C34.8504 20.4701 33.9279 19.5886 32.8004 19.5886Z" fill="white"/>
</svg>
