<svg width="31" height="31" viewBox="0 0 31 31" fill="none" xmlns="http://www.w3.org/2000/svg">
<path d="M5.05383 13.266C4.00518 13.266 3.15869 14.1125 3.15869 15.1611C3.15869 16.2097 4.00518 17.0562 5.05383 17.0562C6.10247 17.0562 6.94896 16.2097 6.94896 15.1611C6.94896 14.1125 6.10247 13.266 5.05383 13.266ZM5.05383 5.68542C4.00518 5.68542 3.15869 6.53192 3.15869 7.58056C3.15869 8.6292 4.00518 9.47569 5.05383 9.47569C6.10247 9.47569 6.94896 8.6292 6.94896 7.58056C6.94896 6.53192 6.10247 5.68542 5.05383 5.68542ZM5.05383 20.8465C4.00518 20.8465 3.15869 21.7056 3.15869 22.7416C3.15869 23.7776 4.01782 24.6368 5.05383 24.6368C6.08983 24.6368 6.94896 23.7776 6.94896 22.7416C6.94896 21.7056 6.10247 20.8465 5.05383 20.8465ZM8.84409 24.0051H26.532V21.4782H8.84409V24.0051ZM8.84409 16.4245H26.532V13.8977H8.84409V16.4245ZM8.84409 6.31714V8.84398H26.532V6.31714H8.84409Z" fill="white"/>
</svg>
