<svg width="28" height="32" viewBox="0 0 28 32" fill="none" xmlns="http://www.w3.org/2000/svg">
<path d="M18.0367 14.4518C19.9081 14.4518 21.4074 12.6913 21.4074 10.5104C21.4074 8.32953 19.9081 6.56903 18.0367 6.56903C16.1654 6.56903 14.6548 8.32953 14.6548 10.5104C14.6548 12.6913 16.1654 14.4518 18.0367 14.4518ZM9.01817 14.4518C10.8895 14.4518 12.3888 12.6913 12.3888 10.5104C12.3888 8.32953 10.8895 6.56903 9.01817 6.56903C7.14682 6.56903 5.63622 8.32953 5.63622 10.5104C5.63622 12.6913 7.14682 14.4518 9.01817 14.4518ZM9.01817 17.0794C6.39152 17.0794 1.12695 18.6166 1.12695 21.6778V23.6485C1.12695 24.371 1.63425 24.9623 2.25427 24.9623H15.7821C16.4021 24.9623 16.9094 24.371 16.9094 23.6485V21.6778C16.9094 18.6166 11.6448 17.0794 9.01817 17.0794ZM18.0367 17.0794C17.7098 17.0794 17.3378 17.1057 16.9432 17.1451C16.9658 17.1583 16.977 17.1846 16.9883 17.1977C18.2734 18.2881 19.164 19.7465 19.164 21.6778V23.6485C19.164 24.1083 19.0851 24.555 18.9611 24.9623H24.8006C25.4206 24.9623 25.9279 24.371 25.9279 23.6485V21.6778C25.9279 18.6166 20.6634 17.0794 18.0367 17.0794Z" fill="white"/>
</svg>
