<svg width="32" height="30" viewBox="0 0 32 30" fill="none" xmlns="http://www.w3.org/2000/svg">
<path fill-rule="evenodd" clip-rule="evenodd" d="M20.4133 26.2875C20.28 27.1375 19.4533 27.8125 18.4667 27.8125H13.5333C12.5467 27.8125 11.72 27.1375 11.6 26.225L11.24 23.8625C10.88 23.6875 10.5333 23.5 10.1867 23.2875L7.78665 24.1875C6.85332 24.5125 5.82665 24.15 5.37332 23.375L2.93332 19.4125C2.46665 18.5875 2.66665 17.6125 3.41332 17.0625L5.45332 15.575C5.43999 15.3875 5.42665 15.2 5.42665 15C5.42665 14.8125 5.43999 14.6125 5.45332 14.425L3.42665 12.9375C2.63999 12.375 2.43999 11.3625 2.93332 10.5875L5.39999 6.60001C5.85332 5.82501 6.87999 5.47501 7.78665 5.81251L10.2 6.72501C10.5467 6.51251 10.8933 6.32501 11.24 6.15001L11.6 3.76251C11.72 2.88751 12.5467 2.20001 13.52 2.20001H18.4533C19.44 2.20001 20.2667 2.87501 20.3867 3.78751L20.7467 6.15001C21.1067 6.32501 21.4533 6.51251 21.8 6.72501L24.2 5.82501C25.1467 5.50001 26.1733 5.86251 26.6267 6.63751L29.08 10.6125C29.56 11.4375 29.3467 12.4125 28.6 12.9625L26.5733 14.45C26.5867 14.6375 26.6 14.825 26.6 15.025C26.6 15.225 26.5867 15.4125 26.5733 15.6L28.6 17.0875C29.3467 17.65 29.56 18.625 29.0933 19.4125L26.6133 23.4375C26.16 24.2125 25.1333 24.5625 24.2133 24.225L21.8133 23.325C21.4667 23.5375 21.12 23.725 20.7733 23.9L20.4133 26.2875ZM14.16 25.3125H17.84L18.3333 22.125L19.04 21.85C19.6267 21.625 20.2133 21.3 20.8267 20.875L21.4267 20.45L24.6 21.65L26.44 18.65L23.7333 16.675L23.8267 15.975L23.8308 15.9414C23.8694 15.6284 23.9067 15.3258 23.9067 15C23.9067 14.6625 23.8667 14.3375 23.8267 14.025L23.7333 13.325L26.44 11.35L24.5867 8.35001L21.4 9.55001L20.8 9.11251C20.24 8.71251 19.64 8.38751 19.0267 8.15001L18.3333 7.87501L17.84 4.68751H14.16L13.6667 7.87501L12.96 8.13751C12.3733 8.37501 11.7867 8.68751 11.1733 9.12501L10.5733 9.53751L7.39999 8.35001L5.54665 11.3375L8.25332 13.3125L8.15999 14.0125C8.11999 14.3375 8.07999 14.675 8.07999 15C8.07999 15.325 8.10665 15.6625 8.15999 15.975L8.25332 16.675L5.54665 18.65L7.38665 21.65L10.5733 20.45L11.1733 20.8875C11.7467 21.3 12.32 21.6125 12.9467 21.85L13.6533 22.125L14.16 25.3125ZM20.6667 15C20.6667 17.4163 18.5773 19.375 16 19.375C13.4227 19.375 11.3333 17.4163 11.3333 15C11.3333 12.5838 13.4227 10.625 16 10.625C18.5773 10.625 20.6667 12.5838 20.6667 15Z" fill="white"/>
</svg>
